# xmcd
#
# Track frame offsets: 
#        150
#        15357
#        29167
#        43555
#        56105
#        71825
#        86135
#        100445
#        114635
#        128432
#        142612
#        156810
#        171255
#        187307
#        201840
#        216420
#        229125
#        243285
#        257497
#        271030
#        286480
#        302485
#        317550
#        332375
#
# Disc length: 4623 seconds
#
# Revision: 0
# Processed by: cddbd v1.5.2PL0 Copyright (c) Steve Scherf et al.
# Submitted via: ExactAudioCopyFreeDBPlugin 1.0
#
DISCID=59120d18
DTITLE=Sparks Brothers - Complete Recorded Works
DYEAR=1994
DGENRE=Blues
TTITLE0=Louisiana Bound
TTITLE1=I Believe I'll Make a Change
TTITLE2=4-11-44
TTITLE3=East Chicago Blues
TTITLE4=Riot Call Blues
TTITLE5=Whiskey Blues
TTITLE6=Mistreated Blues
TTITLE7=My Man Blues
TTITLE8=So Called Friend Blues
TTITLE9=Bad Luck Blues
TTITLE10=Slavin' Mama Blues
TTITLE11=61 Highway
TTITLE12=Down on the Levee
TTITLE13=Chicago's Too Much for Me
TTITLE14=I. C. Train Blues
TTITLE15=No Good Woman Blues
TTITLE16=Tell Her About Me
TTITLE17=Every Day I Have the Blues
TTITLE18=Got the Blues About My Baby
TTITLE19=Workhouse Blues
TTITLE20=Erie Train Blues
TTITLE21=Ina Blues
TTITLE22=Grinder Blues
TTITLE23=I Wake Up in the Morning
EXTD=
EXTT0=
EXTT1=
EXTT2=
EXTT3=
EXTT4=
EXTT5=
EXTT6=
EXTT7=
EXTT8=
EXTT9=
EXTT10=
EXTT11=
EXTT12=
EXTT13=
EXTT14=
EXTT15=
EXTT16=
EXTT17=
EXTT18=
EXTT19=
EXTT20=
EXTT21=
EXTT22=
EXTT23=
PLAYORDER=
